<svg id="Layer_1" data-name="Layer 1" xmlns="http://www.w3.org/2000/svg" viewBox="0 0 95 72"><defs><style>.cls-1{fill:#199e38;}.cls-2{fill:#e30f70;}</style></defs><path class="cls-1" d="M11.25,36.73a66.45,66.45,0,0,0,7.14,4,70,70,0,0,0,7.43,3.07A64.23,64.23,0,0,0,33.46,46a57.25,57.25,0,0,0,7.81,1.16c.32,0,.65.07,1,.09l1,0,1,0,.49,0h.5l2,0c.65,0,1.31-.06,2-.07l1,0,1-.08,2-.14,2-.23,1-.11,1-.16c.65-.11,1.32-.2,2-.29l2-.39c1.33-.22,2.64-.56,4-.84.67-.13,1.32-.32,2-.49l2-.5c.67-.17,1.32-.38,2-.56s1.33-.37,2-.53a49.66,49.66,0,0,1-15.2,7l-1,.28-1,.24-2.08.44-2.11.32-1.05.15-1.07.1c-.71.06-1.42.12-2.13.16l-2.14,0h-.53l-.54,0-1.07,0-1.07,0c-.36,0-.71-.06-1.07-.09-.71-.08-1.42-.12-2.13-.23L36.64,51c-1.4-.28-2.81-.55-4.18-.95a45.93,45.93,0,0,1-8-3,43.26,43.26,0,0,1-7.22-4.43,38.2,38.2,0,0,1-3.21-2.73,25.06,25.06,0,0,1-2.8-3.12"/><path class="cls-1" d="M72.06,47.33a24.65,24.65,0,0,1-3.13,2.45,34.94,34.94,0,0,1-3.45,2A37,37,0,0,1,58,54.65c-1.29.32-2.61.59-3.93.78a31.53,31.53,0,0,1-4,.3,27.54,27.54,0,0,1-7.89-1,58.06,58.06,0,0,0,7.82-.2c1.29-.13,2.57-.32,3.84-.54s2.54-.51,3.79-.83A58.65,58.65,0,0,0,65,50.74c1.2-.5,2.4-1,3.57-1.59s2.34-1.17,3.5-1.82"/><path class="cls-1" d="M83.47,20a63.31,63.31,0,0,0-7.15-4,67.85,67.85,0,0,0-7.42-3.07,64.91,64.91,0,0,0-7.65-2.14,55.59,55.59,0,0,0-7.8-1.16l-1-.09-1-.05-1,0-.49,0h-.49l-2,0c-.66,0-1.32.06-2,.06l-1,0-1,.08-2,.14-2,.23-1,.11-1,.16-2,.29-2,.38c-1.33.23-2.63.56-4,.85-.67.13-1.33.32-2,.49l-2,.5c-.66.17-1.32.38-2,.56s-1.33.37-2,.53a49.37,49.37,0,0,1,15.19-7l1-.28c.34-.09.69-.16,1-.24L41,5.77c.7-.12,1.41-.22,2.11-.32l1.06-.15,1.06-.1C46,5.14,46.69,5.08,47.4,5L49.54,5h.54l.53,0,1.07,0,1.07,0c.36,0,.72.06,1.07.09.71.08,1.43.12,2.13.23l2.13.31c1.4.29,2.8.56,4.17,1a45.73,45.73,0,0,1,8,3,43.26,43.26,0,0,1,7.22,4.43,37.79,37.79,0,0,1,3.2,2.73A24.37,24.37,0,0,1,83.47,20"/><path class="cls-1" d="M22.66,9.35A24,24,0,0,1,25.79,6.9a31.93,31.93,0,0,1,3.44-2A35.59,35.59,0,0,1,40.64,1.25a31.37,31.37,0,0,1,4-.3,27.61,27.61,0,0,1,7.9,1,58.21,58.21,0,0,0-7.83.2c-1.29.13-2.57.32-3.84.54s-2.53.5-3.78.83a58.25,58.25,0,0,0-7.36,2.45c-1.2.5-2.4,1-3.57,1.59S23.81,8.7,22.66,9.35"/><path class="cls-2" d="M23.75,17.46a.6.6,0,0,0-.24.28L21.9,21.43l-1.61-3.69a.58.58,0,0,0-.23-.28.6.6,0,0,0-.35-.1H19V22.7h.56a.31.31,0,0,0,.31-.31V19l1.51,3.47a.32.32,0,0,0,.28.19h.6L23.91,19v3.38a.3.3,0,0,0,.3.31h.57V17.36h-.69a.59.59,0,0,0-.34.1m-3.92,1.07h0Z"/><path class="cls-2" d="M28.2,21.33a.37.37,0,0,1-.08.21.82.82,0,0,1-.22.19,1,1,0,0,1-.32.13,1.23,1.23,0,0,1-.39.05.5.5,0,0,1-.47-.23,1.27,1.27,0,0,1-.16-.7V18.74h-.87V21a2.28,2.28,0,0,0,.1.72,1.77,1.77,0,0,0,.31.56,1.26,1.26,0,0,0,.47.36,1.41,1.41,0,0,0,.62.13,2,2,0,0,0,.35,0l.33-.1a1.48,1.48,0,0,0,.28-.17l.06-.06s0,.05,0,.07a1.17,1.17,0,0,0,.05.11.41.41,0,0,0,.05.09l0,0h.72v-4H28.2Z"/><path class="cls-2" d="M33,19.16a1.3,1.3,0,0,0-.48-.35,1.73,1.73,0,0,0-1-.09,1.59,1.59,0,0,0-.33.1,1.12,1.12,0,0,0-.28.18l-.06.05a.14.14,0,0,0,0-.07.36.36,0,0,0,0-.11.24.24,0,0,0-.06-.09l0,0H30v4h.57a.31.31,0,0,0,.31-.31V20.08a.37.37,0,0,1,.08-.21.8.8,0,0,1,.22-.17,1,1,0,0,1,.32-.13,1.6,1.6,0,0,1,.39-.05.52.52,0,0,1,.47.24,1.25,1.25,0,0,1,.16.7v1.93a.31.31,0,0,0,.3.31h.57V20.46a2.4,2.4,0,0,0-.11-.74,1.58,1.58,0,0,0-.3-.56"/><path class="cls-2" d="M35.09,17.46a.94.94,0,0,0-.18-.12.58.58,0,0,0-.45,0,.52.52,0,0,0-.17.13.46.46,0,0,0-.13.18.51.51,0,0,0,0,.22.57.57,0,0,0,0,.22.46.46,0,0,0,.13.18.57.57,0,0,0,.18.12.51.51,0,0,0,.22,0,.57.57,0,0,0,.22,0,.94.94,0,0,0,.18-.12.71.71,0,0,0,.12-.18.57.57,0,0,0,0-.22.59.59,0,0,0,0-.23.94.94,0,0,0-.12-.18"/><path class="cls-2" d="M34.76,18.74h-.51v4h.87V19.09a.36.36,0,0,0-.36-.35"/><path class="cls-2" d="M37,19.89a1.09,1.09,0,0,1,.38-.25,1,1,0,0,1,.45-.1l.3,0a1.09,1.09,0,0,1,.27.11.64.64,0,0,0,.57,0,.66.66,0,0,0,.2-.14l.2-.2-.06-.05a2.12,2.12,0,0,0-.66-.48,2,2,0,0,0-1.61,0,2,2,0,0,0-.64.43,2.26,2.26,0,0,0-.44.65,2,2,0,0,0,0,1.58,2.21,2.21,0,0,0,.44.64,2,2,0,0,0,.64.44,1.92,1.92,0,0,0,.79.16,2,2,0,0,0,.82-.17,2.12,2.12,0,0,0,.66-.48L39.4,22l-.2-.19a.62.62,0,0,0-.19-.14.66.66,0,0,0-.58,0,1.09,1.09,0,0,1-.27.11,1.2,1.2,0,0,1-.75-.06,1.09,1.09,0,0,1-.38-.25,1.34,1.34,0,0,1-.25-.37,1.22,1.22,0,0,1-.09-.46,1.18,1.18,0,0,1,.09-.46,1.21,1.21,0,0,1,.25-.37"/><path class="cls-2" d="M40.71,17.46a.57.57,0,0,0-.18-.12.56.56,0,0,0-.44,0,.46.46,0,0,0-.18.13.57.57,0,0,0-.12.18.51.51,0,0,0,0,.22.59.59,0,0,0,0,.22.55.55,0,0,0,.3.3.63.63,0,0,0,.44,0,.57.57,0,0,0,.18-.12.94.94,0,0,0,.12-.18.59.59,0,0,0,.05-.22.59.59,0,0,0-.05-.23.94.94,0,0,0-.12-.18"/><path class="cls-2" d="M40.39,18.74h-.52v4h.87V19.1a.36.36,0,0,0-.35-.36"/><path class="cls-2" d="M44.9,19.29a1.8,1.8,0,0,0-.62-.44,1.85,1.85,0,0,0-.78-.16h-.17l-.22,0-.22.07a1,1,0,0,0-.21.1l-.11.09h0a.76.76,0,0,1,0-.11l-.06-.09,0,0h-.72v5.18h.52a.35.35,0,0,0,.35-.35v-1.1l.11.07a1.66,1.66,0,0,0,.27.13,1.1,1.1,0,0,0,.26.06,1.94,1.94,0,0,0,1.05-.14,2.06,2.06,0,0,0,.62-.44,2.13,2.13,0,0,0,.41-.64,2.3,2.3,0,0,0,0-1.58,2.13,2.13,0,0,0-.41-.64m-.3,1.43a1.39,1.39,0,0,1-.08.46,1,1,0,0,1-.23.37,1,1,0,0,1-.35.25,1.28,1.28,0,0,1-1.35-.27V19.91a1.2,1.2,0,0,1,.4-.26,1.17,1.17,0,0,1,.95,0,1,1,0,0,1,.35.25,1,1,0,0,1,.23.37,1.39,1.39,0,0,1,.08.46"/><path class="cls-2" d="M49,19.76a1.76,1.76,0,0,0-.17-.42,1.09,1.09,0,0,0-.29-.35,1.19,1.19,0,0,0-.42-.22,1.61,1.61,0,0,0-.56-.08,1.77,1.77,0,0,0-.58.08,1.8,1.8,0,0,0-.49.22l-.16.12-.11.11-.1.11,0,.07.27.19a.69.69,0,0,0,.19.1.46.46,0,0,0,.21,0,.53.53,0,0,0,.23,0l.16-.07.16-.06a1,1,0,0,1,.51,0,.45.45,0,0,1,.21.12.62.62,0,0,1,.15.24,1.27,1.27,0,0,1,.07.32h-.13l-.21,0h-.24a3.07,3.07,0,0,0-.79.09,1.58,1.58,0,0,0-.57.26A1.12,1.12,0,0,0,46,21a1.38,1.38,0,0,0-.11.55,1.18,1.18,0,0,0,.1.5,1.08,1.08,0,0,0,.28.39,1.39,1.39,0,0,0,.43.25,1.85,1.85,0,0,0,.54.08,1.13,1.13,0,0,0,.3,0,1.68,1.68,0,0,0,.32-.09,1.77,1.77,0,0,0,.31-.15l.13-.09a.5.5,0,0,0,0,.13.51.51,0,0,0,.09.16l0,0h.7v-2a4,4,0,0,0,0-.49,2.43,2.43,0,0,0-.08-.47m-.74,1.31v.52l-.23.12a2,2,0,0,1-.29.1,1.43,1.43,0,0,1-.28.07,1.23,1.23,0,0,1-.47,0,.34.34,0,0,1-.16-.06.23.23,0,0,1-.1-.12.29.29,0,0,1,0-.17.3.3,0,0,1,.07-.21.47.47,0,0,1,.19-.14,1.26,1.26,0,0,1,.31-.09,2.73,2.73,0,0,1,.41,0h.59Z"/><path class="cls-2" d="M50,17.71v5h.88V17.36h-.52a.36.36,0,0,0-.36.35"/><path class="cls-2" d="M52.46,18.74h-.52v4h.87V19.09a.35.35,0,0,0-.35-.35"/><path class="cls-2" d="M52.78,17.46a.57.57,0,0,0-.18-.12.56.56,0,0,0-.44,0,.46.46,0,0,0-.18.13.57.57,0,0,0-.12.18.51.51,0,0,0,0,.22.57.57,0,0,0,0,.22.71.71,0,0,0,.12.18.57.57,0,0,0,.18.12.62.62,0,0,0,.44,0,.55.55,0,0,0,.3-.3.59.59,0,0,0,.05-.22.59.59,0,0,0-.05-.23.94.94,0,0,0-.12-.18"/><path class="cls-2" d="M56.39,17.71V19l-.11-.08a1.59,1.59,0,0,0-.27-.12,1.19,1.19,0,0,0-.27-.07,1.91,1.91,0,0,0-1,.14,2.12,2.12,0,0,0-.62.44,2.11,2.11,0,0,0-.56,1.43,2.09,2.09,0,0,0,.15.79,2.17,2.17,0,0,0,.41.65,1.92,1.92,0,0,0,.62.43,1.85,1.85,0,0,0,.78.16h.26l.27-.07a1.26,1.26,0,0,0,.26-.13,1.1,1.1,0,0,0,.14-.09h0a1,1,0,0,0,0,.1l.06.11,0,0h.72V17.36h-.52a.35.35,0,0,0-.35.35m0,2.2v1.62a1.41,1.41,0,0,1-.4.27,1.25,1.25,0,0,1-1,0,1,1,0,0,1-.35-.25,1.23,1.23,0,0,1-.31-.84,1.17,1.17,0,0,1,.08-.46,1.1,1.1,0,0,1,.23-.37,1.07,1.07,0,0,1,.34-.25,1.13,1.13,0,0,1,.45-.09,1.32,1.32,0,0,1,.51.1,1.38,1.38,0,0,1,.4.26"/><path class="cls-2" d="M61.16,19.76a2.3,2.3,0,0,0-.17-.42A1.23,1.23,0,0,0,60.7,19a1.4,1.4,0,0,0-.42-.22,1.64,1.64,0,0,0-.57-.08,1.71,1.71,0,0,0-.57.08,1.67,1.67,0,0,0-.49.22l-.16.12a.57.57,0,0,0-.11.11l-.1.11,0,.07.27.19a.81.81,0,0,0,.18.1.52.52,0,0,0,.21,0,.5.5,0,0,0,.23,0l.16-.07.17-.06a1,1,0,0,1,.51,0,.45.45,0,0,1,.21.12.62.62,0,0,1,.15.24,1.94,1.94,0,0,1,.07.32h-.13l-.21,0h-.24a3.07,3.07,0,0,0-.79.09,1.5,1.5,0,0,0-.57.26,1,1,0,0,0-.34.42,1.19,1.19,0,0,0-.12.54,1.35,1.35,0,0,0,.1.5,1.21,1.21,0,0,0,.28.39,1.52,1.52,0,0,0,.43.25,1.92,1.92,0,0,0,.55.08,1.13,1.13,0,0,0,.3,0l.32-.09a2.2,2.2,0,0,0,.31-.15l.13-.09a.28.28,0,0,0,0,.13.51.51,0,0,0,.09.16l0,0h.7v-2c0-.16,0-.33,0-.49a3.55,3.55,0,0,0-.08-.47m-.74,1.31v.52l-.24.12-.28.1a1.53,1.53,0,0,1-.29.07,1.23,1.23,0,0,1-.47,0,.44.44,0,0,1-.16-.06.32.32,0,0,1-.13-.29.35.35,0,0,1,.06-.21.51.51,0,0,1,.2-.14,1.14,1.14,0,0,1,.31-.09,2.63,2.63,0,0,1,.41,0h.59Z"/><path class="cls-2" d="M64.68,17.71V19l-.12-.08a1.23,1.23,0,0,0-.26-.12,1.34,1.34,0,0,0-.27-.07,1.89,1.89,0,0,0-1,.14,2,2,0,0,0-.62.44,2.11,2.11,0,0,0-.56,1.43,2.09,2.09,0,0,0,.15.79,2.17,2.17,0,0,0,.41.65,1.82,1.82,0,0,0,.62.43,1.85,1.85,0,0,0,.78.16H64l.27-.07a1.26,1.26,0,0,0,.26-.13.6.6,0,0,0,.13-.09h0a.3.3,0,0,0,0,.1.39.39,0,0,0,.06.11l0,0h.72V17.36H65a.34.34,0,0,0-.35.35m0,2.2v1.62a1.46,1.46,0,0,1-.41.27,1.12,1.12,0,0,1-1.3-.24,1.19,1.19,0,0,1-.22-.38,1.14,1.14,0,0,1-.09-.46,1.22,1.22,0,0,1,.09-.46,1,1,0,0,1,.57-.62,1.13,1.13,0,0,1,.45-.09,1.24,1.24,0,0,1,.5.1,1.43,1.43,0,0,1,.41.26"/><path class="cls-2" d="M71.3,17.71V19l-.12-.08a1.23,1.23,0,0,0-.26-.12,1.34,1.34,0,0,0-.27-.07,1.89,1.89,0,0,0-1,.14,2,2,0,0,0-.62.44,2.11,2.11,0,0,0-.56,1.43,2.09,2.09,0,0,0,.15.79,2.17,2.17,0,0,0,.41.65,1.82,1.82,0,0,0,.62.43,1.85,1.85,0,0,0,.78.16h.26l.27-.07a1.26,1.26,0,0,0,.26-.13,1.1,1.1,0,0,0,.14-.09h0a.3.3,0,0,0,0,.1.39.39,0,0,0,.06.11l0,0h.72V17.36h-.52a.35.35,0,0,0-.35.35m0,2.2v1.62a1.56,1.56,0,0,1-.4.27,1.28,1.28,0,0,1-1,0,1.24,1.24,0,0,1-.35-.25,1.3,1.3,0,0,1-.22-.38,1.14,1.14,0,0,1-.08-.46,1.17,1.17,0,0,1,.08-.46,1,1,0,0,1,.57-.62,1.13,1.13,0,0,1,.45-.09,1.32,1.32,0,0,1,.51.1,1.53,1.53,0,0,1,.4.26"/><path class="cls-2" d="M76.83,20.39v-.08a.36.36,0,0,0,0-.1,1.63,1.63,0,0,0-.27-.6,2.06,2.06,0,0,0-.44-.49,2.33,2.33,0,0,0-.58-.32,2,2,0,0,0-1.45.05,1.94,1.94,0,0,0-.65.43,2,2,0,0,0-.43.65,2,2,0,0,0,0,1.58,2,2,0,0,0,.43.64,1.83,1.83,0,0,0,.65.44,1.88,1.88,0,0,0,.78.16,2.09,2.09,0,0,0,.83-.17,2.24,2.24,0,0,0,.66-.48l0-.06-.19-.19a.66.66,0,0,0-.2-.14.67.67,0,0,0-.42,0l-.15.07-.28.11a1.12,1.12,0,0,1-.7,0,1.58,1.58,0,0,1-.36-.2,1.3,1.3,0,0,1-.26-.31,1.48,1.48,0,0,1-.12-.29h2.54a.49.49,0,0,0,.2-.05.55.55,0,0,0,.19-.12.64.64,0,0,0,.13-.19.58.58,0,0,0,.06-.26Zm-3-.22a.75.75,0,0,1,.07-.12,1,1,0,0,1,.26-.27,1.09,1.09,0,0,1,.32-.17,1,1,0,0,1,.38-.07,1,1,0,0,1,.35.06.81.81,0,0,1,.31.15.92.92,0,0,1,.25.23l.13.18H73.82"/><path class="cls-2" d="M21.23,39.05H19.12V25.39h5.51a4.36,4.36,0,0,1,1.79.38,4.72,4.72,0,0,1,1.47,1,4.87,4.87,0,0,1,1,1.52,4.71,4.71,0,0,1,0,3.61,4.87,4.87,0,0,1-1,1.52,4.72,4.72,0,0,1-1.47,1,4.36,4.36,0,0,1-1.79.38h-2.4V38a1,1,0,0,1-1,1m3.41-7.29a1.11,1.11,0,0,0,.55-.15,1.54,1.54,0,0,0,.47-.37,1.65,1.65,0,0,0,.33-.52,1.38,1.38,0,0,0,0-1.17,1.65,1.65,0,0,0-.33-.52,1.54,1.54,0,0,0-.47-.37,1.11,1.11,0,0,0-.55-.15H22.23v3.25Z"/><path class="cls-2" d="M34.44,25.39h2.69l6,13.66h-2a2.35,2.35,0,0,1-.6-.08,2.4,2.4,0,0,1-.54-.24,2,2,0,0,1-.45-.38,1.91,1.91,0,0,1-.32-.51l-.67-1.52H33.07l-.65,1.52a2.11,2.11,0,0,1-.32.48,2.82,2.82,0,0,1-.46.38,2.37,2.37,0,0,1-.56.26,2,2,0,0,1-.59.09h-2Zm-.13,8.1h2.92L36,30.63a2.36,2.36,0,0,1-.13-.37c0-.12-.06-.22-.08-.31s0-.19,0-.28c0,.09,0,.19-.05.29a3.19,3.19,0,0,1-.09.31,3.79,3.79,0,0,1-.12.36Z"/><path class="cls-2" d="M47.89,39.05H44.76V25.39h1.72a1.41,1.41,0,0,1,1.41,1.41Z"/><path class="cls-2" d="M64.23,39.05h-3a.06.06,0,0,1-.06,0l-6.39-9.25a.07.07,0,0,0-.12,0V38a1,1,0,0,1-1,1h-2a.07.07,0,0,1-.07-.07V25.45a.07.07,0,0,1,.07-.06h3a2.22,2.22,0,0,1,.81.13,1.16,1.16,0,0,1,.55.41l4.77,7a1.74,1.74,0,0,1,.18.33l.14.34c0,.11.06.2.08.27a.9.9,0,0,1,0,.15V25.45a.07.07,0,0,1,.07-.06h2.33a.71.71,0,0,1,.71.71V39a.07.07,0,0,1-.07.07"/><path class="cls-2" d="M76.75,39.05H68.62a1,1,0,0,1-1-1V25.39h9.09v2.27a.63.63,0,0,1-.64.64H70.77v2.4h4.1a.77.77,0,0,1,.77.77v2.14H70.77v2.52H76a.76.76,0,0,1,.76.76Z"/><path class="cls-2" d="M8.14,70.21H8a2.31,2.31,0,0,1-1.26-.4,4,4,0,0,1-1.45-1.57,6.5,6.5,0,0,1-.6-3,12.71,12.71,0,0,1,.68-3.9,13.86,13.86,0,0,1,3.41-5.81,6,6,0,0,1,.89-.78,3.24,3.24,0,0,1,1.84-.71,1.72,1.72,0,0,1,.94.25,1.55,1.55,0,0,1,.86,1.26,9.88,9.88,0,0,1-.81,2.61l-.78,2.1c-.07.25-.2.38-.38.38a.63.63,0,0,1-.26-.08.82.82,0,0,1-.53-.81,3.56,3.56,0,0,1,.39-1.38c.27-.56.53-1.16.8-1.78a2.61,2.61,0,0,0,.25-1v-.15h-.12a1.15,1.15,0,0,0-.46.1l-.48.28a6.56,6.56,0,0,0-1.57,1.49,14.63,14.63,0,0,0-3,9,3.82,3.82,0,0,0,.73,2.32.85.85,0,0,0,.69.48,1.13,1.13,0,0,0,.63-.25,3.78,3.78,0,0,0,.87-.82c.24-.31.58-.8,1-1.47s.77-1,1-1a.79.79,0,0,1,.37.1c.27.11.41.27.41.48a9,9,0,0,1-1.52,2.52A3.3,3.3,0,0,1,8.14,70.21Z"/><path class="cls-2" d="M13,66.44h-.13a.59.59,0,0,1-.55-.65l0-.28c.39-3.62.83-5.76,1.32-6.4a.62.62,0,0,1,.48-.17c.54,0,.79.22.76.68l-.51,1.87c1.33-1.42,2.27-2.12,2.81-2.12s.86.25.83.75c0,.11-.05.16-.15.16a5.55,5.55,0,0,0-2.24,1.82,10.28,10.28,0,0,0-1.81,3.61C13.63,66.2,13.36,66.44,13,66.44Z"/><path class="cls-2" d="M20.05,66.93a2.9,2.9,0,0,1-2.18-1.4A3.16,3.16,0,0,1,17.44,64a5.21,5.21,0,0,1,1.72-3.69,3,3,0,0,1,2-.81c1,0,1.47.39,1.47,1.16a1.17,1.17,0,0,1,0,.39l-.06.22a3,3,0,0,1-.76,1.1,6.06,6.06,0,0,1-1.31,1,2.53,2.53,0,0,1-1.22.42c-.27,0-.43,0-.48.1a.83.83,0,0,0-.07.43,1.13,1.13,0,0,0,.43,1,1.3,1.3,0,0,0,.78.33,1.53,1.53,0,0,0,.83-.33.54.54,0,0,1,.21,0,.45.45,0,0,1,.36.24.85.85,0,0,1,.17.47l0,.2A1.42,1.42,0,0,1,20.05,66.93Zm-.69-4.43.13,0a5.23,5.23,0,0,0,1.57-1.27.52.52,0,0,0,.18-.38c0-.08,0-.12-.13-.12a1.24,1.24,0,0,0-.46.15,2.09,2.09,0,0,0-.88.71,1.91,1.91,0,0,0-.46.88A0,0,0,0,0,19.36,62.5Z"/><path class="cls-2" d="M24.42,66.67A1.5,1.5,0,0,1,23,65.79a2.61,2.61,0,0,1-.35-1.29,7.23,7.23,0,0,1,1.57-4.4,1.85,1.85,0,0,1,1.39-.83,1,1,0,0,1,1,.6,1.1,1.1,0,0,1,.08.33c0,.2-.16.31-.42.32a.83.83,0,0,0-.62.26A6.14,6.14,0,0,0,24,65.11c0,.23.06.35.18.35a5.27,5.27,0,0,0,.83-.86.77.77,0,0,1,.53-.28.68.68,0,0,1,.48.18.5.5,0,0,1,.21.38A4.18,4.18,0,0,1,25,66.52,1.28,1.28,0,0,1,24.42,66.67Z"/><path class="cls-2" d="M29.6,66.93a2.89,2.89,0,0,1-2.17-1.4A3.06,3.06,0,0,1,27,64a5.17,5.17,0,0,1,1.72-3.69,3,3,0,0,1,2-.81c1,0,1.47.39,1.47,1.16a1.52,1.52,0,0,1,0,.39c0,.08,0,.15-.07.22a3.06,3.06,0,0,1-.75,1.1,6.37,6.37,0,0,1-1.32,1,2.47,2.47,0,0,1-1.21.42c-.27,0-.43,0-.48.1a.8.8,0,0,0-.08.43,1.15,1.15,0,0,0,.43,1,1.35,1.35,0,0,0,.79.33,1.56,1.56,0,0,0,.83-.33.49.49,0,0,1,.2,0,.45.45,0,0,1,.37.24.83.83,0,0,1,.16.47l0,.2A1.43,1.43,0,0,1,29.6,66.93Zm-.68-4.43.13,0a5.19,5.19,0,0,0,1.56-1.27.52.52,0,0,0,.18-.38c0-.08,0-.12-.13-.12a1.15,1.15,0,0,0-.45.15,2.18,2.18,0,0,0-.89.71,1.86,1.86,0,0,0-.45.88A0,0,0,0,0,28.92,62.5Z"/><path class="cls-2" d="M41.58,68.21a.75.75,0,0,1-.51-.2,1,1,0,0,1-.33-.5,2.2,2.2,0,0,1-.09-.61c0-.13,0-.26,0-.38a47.89,47.89,0,0,1,.86-5,1.59,1.59,0,0,0,.08-.33l0-.15a1.19,1.19,0,0,0-.49.48c-.6.81-1.54,2.16-2.8,4-.15.26-.31.5-.48.74l-.08.1a1,1,0,0,1-.76.43,1.13,1.13,0,0,1-.73-.3,1.52,1.52,0,0,1-.45-1.29,13.16,13.16,0,0,1,.27-2.48l0-.18s0-.07,0-.07-.16.09-.28.27A20.53,20.53,0,0,0,34,65.91a.92.92,0,0,1-.79.56,1,1,0,0,1-.58-.24.77.77,0,0,1-.3-.64v-.06a14.39,14.39,0,0,1,.73-3.43c.12-.46.35-.69.71-.69a.56.56,0,0,1,.61.64,2.67,2.67,0,0,1-.06.5l.38-.48a21.59,21.59,0,0,1,1.55-1.74,1.16,1.16,0,0,1,.68-.26.89.89,0,0,1,.88.74,1.17,1.17,0,0,1,0,.38c0,.18-.13,1-.4,2.58a1.34,1.34,0,0,0-.08.48l0,.25a.56.56,0,0,0,.31-.33c.08-.17.62-1,1.64-2.38a18.71,18.71,0,0,1,2.52-3,.89.89,0,0,1,.66-.38.64.64,0,0,1,.28.07,1.08,1.08,0,0,1,.63,1,3.54,3.54,0,0,1-.2,1A46.89,46.89,0,0,0,42,66.39a4.49,4.49,0,0,0-.08.86,2.16,2.16,0,0,0,.08.56l0,.1C42,68.11,41.87,68.21,41.58,68.21Z"/><path class="cls-2" d="M45.33,66.34a1.29,1.29,0,0,1-1.22-.86A3.22,3.22,0,0,1,44,64.6a8.69,8.69,0,0,1,1.06-4,4.09,4.09,0,0,1,.76-1,1,1,0,0,1,.68-.35.86.86,0,0,1,.58.3,2.67,2.67,0,0,1,1,2l0,.48a2.76,2.76,0,0,1-.15.91,7.59,7.59,0,0,1-1.37,2.7A1.51,1.51,0,0,1,45.33,66.34Zm.17-1.29a10.64,10.64,0,0,0,.89-1.54,3.57,3.57,0,0,0,.43-1.62,3.14,3.14,0,0,0-.26-1.21,6.51,6.51,0,0,0-1.11,3.57A7,7,0,0,0,45.5,65.05Z"/><path class="cls-2" d="M49.4,67.84a1.77,1.77,0,0,1-.86-.18.52.52,0,0,1-.33-.46v0a.38.38,0,0,1,.38-.28l.27,0a1.36,1.36,0,0,0,.81-.3,7.31,7.31,0,0,0,1.85-2.18.3.3,0,0,0,0-.1s0-.06,0-.07a2,2,0,0,0,.17-.74c0-.54-.4-.81-1.21-.81a3.68,3.68,0,0,0-.71,0h-.07a1.25,1.25,0,0,1-.84-.3.8.8,0,0,1-.35-.61c0-.32.48-1,1.44-2a3.91,3.91,0,0,1,2.35-1.47,2.31,2.31,0,0,1,.43.05c.2,0,.39.21.58.53a1.07,1.07,0,0,1,.2.58c0,.22-.09.33-.28.33a.6.6,0,0,1-.24-.08.59.59,0,0,0-.29-.07.74.74,0,0,0-.22,0,5.32,5.32,0,0,0-1.09.91l-.08,0a5.18,5.18,0,0,0-.68.81l.68.2a2.68,2.68,0,0,1,1.24.9,2.05,2.05,0,0,1,.51,1.27A2.12,2.12,0,0,1,52.81,65a7.72,7.72,0,0,1-2.23,2.43A2.07,2.07,0,0,1,49.4,67.84Z"/><path class="cls-2" d="M58,71.53a1.78,1.78,0,0,1-1.7-1.17A4.7,4.7,0,0,1,56,68.72v-.3a9.35,9.35,0,0,1,2.18-5.16,1.47,1.47,0,0,1,.83-.38,1.31,1.31,0,0,1,.55.2.52.52,0,0,1,.26.43.31.31,0,0,1-.06.13l-.29.25a8.2,8.2,0,0,0-2.08,4.78c0,.94.16,1.52.46,1.72a4.59,4.59,0,0,0,1.29-1.21,20.07,20.07,0,0,0,2.37-5.59,35.51,35.51,0,0,0,1-6,11,11,0,0,0-.06-1.17,6.27,6.27,0,0,0-1.54.53,14.24,14.24,0,0,0-1.53.89c-.48.32-.85.59-1.12.81a.64.64,0,0,1-.48.25.78.78,0,0,1-.6-.31,1,1,0,0,1-.26-.57q0-1.06,5-3a11,11,0,0,1,3.59-.91h.13c.86.07,1.29.39,1.29,1,0,.19-.13.28-.38.28l-.56,0a3.33,3.33,0,0,0-.7.07c-.75.15-1.15.29-1.22.41a1.7,1.7,0,0,0,0,.3c0,.66,0,1.31-.08,1.95A28,28,0,0,1,61.2,68.64a6.65,6.65,0,0,1-1.59,2.15A2.33,2.33,0,0,1,58,71.53Z"/><path class="cls-2" d="M68.15,67c-.6,0-.91-.51-.91-1.52l0-.63c0-.31,0-.46-.1-.46s-.17.1-.31.31c-.45.67-.88,1-1.29,1l-.31,0c-.18,0-.37-.23-.57-.62a3.33,3.33,0,0,1-.23-1.34,7.24,7.24,0,0,1,1.06-3.51c.19-.27.35-.41.48-.41a.63.63,0,0,1,.26.08.65.65,0,0,1,.35.55.8.8,0,0,1-.1.38,7.54,7.54,0,0,0-.88,3.09q0,.3.12.3c.25,0,.81-.73,1.67-2.2.25-.42.58-.93,1-1.52A1.82,1.82,0,0,1,68.7,60a.41.41,0,0,0,.09-.1.6.6,0,0,1,.4-.2.5.5,0,0,1,.28.1.67.67,0,0,1,.33.5.66.66,0,0,1-.1.31,7.62,7.62,0,0,0-.76,1.76,11,11,0,0,0-.64,3.32,4.53,4.53,0,0,0,.11,1C68.41,66.88,68.32,67,68.15,67Z"/><path class="cls-2" d="M75,67.63a.81.81,0,0,1-.89-.68,3.42,3.42,0,0,1-.07-.71,26.5,26.5,0,0,1,.78-4.93l.1-.5a.2.2,0,0,0,0-.09.15.15,0,0,1,0-.06,1.51,1.51,0,0,0-.5.53A34.52,34.52,0,0,0,72,64.47l-.25.38a1,1,0,0,1-.68.46,1.07,1.07,0,0,1-1-1.14,12.35,12.35,0,0,1,.18-2,6.52,6.52,0,0,1,.38-1.5,1.36,1.36,0,0,1,.33-.51.47.47,0,0,1,.28-.09,1,1,0,0,1,.65.31.59.59,0,0,1,.21.43c-.09.71-.14,1.1-.16,1.17a.74.74,0,0,1,0,.19.83.83,0,0,0,0,.13.57.57,0,0,0,.23-.2,30.76,30.76,0,0,1,2-2.68,2.15,2.15,0,0,1,1.47-.94c.64,0,1,.41,1,1.24a3.14,3.14,0,0,1-.16.83,30,30,0,0,0-1.16,6,4,4,0,0,0,0,.6v.08C75.28,67.52,75.18,67.63,75,67.63Z"/><path class="cls-2" d="M78.29,67.84c-.74,0-1.11-.58-1.11-1.72a31.59,31.59,0,0,1,.63-5.46c.2-1.1.38-1.92.53-2.46a4.92,4.92,0,0,0-.68.09.69.69,0,0,0-.33.12.3.3,0,0,1-.2.05c-.26,0-.47-.18-.66-.53a1.11,1.11,0,0,1-.13-.46c0-.24.15-.4.43-.51a9.48,9.48,0,0,1,1.39-.15,1,1,0,0,0,1-.65c.32-.76.62-1.16.89-1.19a1,1,0,0,1,.48.12.61.61,0,0,1,.33.86,1.32,1.32,0,0,0-.23.61,1.12,1.12,0,0,0,.48.08,6,6,0,0,1,1.49.16.93.93,0,0,1,.74.8c0,.28-.18.43-.54.43a3.25,3.25,0,0,0-1.21-.13,3.56,3.56,0,0,0-1.57.18,5.75,5.75,0,0,0-.75,2.32,29.3,29.3,0,0,0-.81,6,2,2,0,0,0,.2,1,.41.41,0,0,1,0,.17C78.67,67.7,78.54,67.8,78.29,67.84Z"/><path class="cls-2" d="M82.06,66.34a1.29,1.29,0,0,1-1.22-.86,3.22,3.22,0,0,1-.12-.88,8.69,8.69,0,0,1,1.06-4,4.09,4.09,0,0,1,.76-1,1,1,0,0,1,.68-.35.86.86,0,0,1,.58.3,2.67,2.67,0,0,1,1,2l0,.48a2.76,2.76,0,0,1-.15.91,7.59,7.59,0,0,1-1.37,2.7A1.51,1.51,0,0,1,82.06,66.34Zm.17-1.29a10.64,10.64,0,0,0,.89-1.54,3.57,3.57,0,0,0,.43-1.62,3.14,3.14,0,0,0-.26-1.21,6.51,6.51,0,0,0-1.11,3.57A7,7,0,0,0,82.23,65.05Z"/><path class="cls-2" d="M86.13,67.84a1.77,1.77,0,0,1-.86-.18.52.52,0,0,1-.33-.46v0a.38.38,0,0,1,.38-.28l.28,0a1.35,1.35,0,0,0,.8-.3,7.31,7.31,0,0,0,1.85-2.18.3.3,0,0,0,0-.1s0-.06,0-.07a2,2,0,0,0,.17-.74c0-.54-.4-.81-1.21-.81a3.68,3.68,0,0,0-.71,0h-.07a1.25,1.25,0,0,1-.84-.3.8.8,0,0,1-.35-.61c0-.32.48-1,1.44-2a3.91,3.91,0,0,1,2.35-1.47,2.31,2.31,0,0,1,.43.05c.2,0,.39.21.58.53a1,1,0,0,1,.2.58c0,.22-.09.33-.28.33a.6.6,0,0,1-.24-.08.59.59,0,0,0-.29-.07.74.74,0,0,0-.22,0,5.32,5.32,0,0,0-1.09.91l-.08,0a5.18,5.18,0,0,0-.68.81l.68.2a2.68,2.68,0,0,1,1.24.9,2.05,2.05,0,0,1,.51,1.27A2.12,2.12,0,0,1,89.54,65a7.72,7.72,0,0,1-2.23,2.43A2.07,2.07,0,0,1,86.13,67.84Z"/></svg>